<svg viewBox="0 0 40 40" fill="none" xmlns="http://www.w3.org/2000/svg">
  <circle cx="20" cy="20" r="20" fill="#111827"/>
  <path d="M12 14C12 12.8954 12.8954 12 14 12H18C19.1046 12 20 12.8954 20 14V18C20 19.1046 19.1046 20 18 20H14C12.8954 20 12 19.1046 12 18V14Z" fill="#F97316"/>
  <path d="M22 22C22 20.8954 22.8954 20 24 20H26C27.1046 20 28 20.8954 28 22V26C28 27.1046 27.1046 28 26 28H24C22.8954 28 22 27.1046 22 26V22Z" fill="#3B82F6"/>
  <circle cx="16" cy="26" r="2" fill="#10B981"/>
  <circle cx="26" cy="16" r="2" fill="#EAB308"/>
</svg>
